<svg width="128" height="16" viewBox="0 0 128 16" fill="none" xmlns="http://www.w3.org/2000/svg">
<g clip-path="url(#clip0_251_11254)">
<path d="M15.9582 6.13756C15.8535 5.81357 15.5661 5.58346 15.2261 5.55282L10.6081 5.1335L8.78202 0.859381C8.64737 0.546144 8.34073 0.343381 8.00002 0.343381C7.65932 0.343381 7.35267 0.546144 7.21802 0.860114L5.39194 5.1335L0.773205 5.55282C0.433844 5.5842 0.147218 5.81357 0.0418689 6.13756C-0.0634797 6.46153 0.033812 6.81688 0.290531 7.04089L3.78119 10.1022L2.75188 14.6364C2.67656 14.9698 2.80596 15.3144 3.08258 15.5143C3.23126 15.6218 3.40521 15.6765 3.58063 15.6765C3.73188 15.6765 3.8819 15.6357 4.01655 15.5551L8.00002 13.1743L11.982 15.5551C12.2734 15.7304 12.6407 15.7144 12.9167 15.5143C13.1935 15.3138 13.3228 14.969 13.2474 14.6364L12.2181 10.1022L15.7088 7.0415C15.9655 6.81688 16.0635 6.46214 15.9582 6.13756Z" fill="#FF9533"/>
</g>
<g clip-path="url(#clip1_251_11254)">
<path d="M43.958 6.13743C43.8533 5.81345 43.5659 5.58334 43.2259 5.5527L38.6079 5.13338L36.7818 0.859259C36.6472 0.546022 36.3405 0.343259 35.9998 0.343259C35.6591 0.343259 35.3525 0.546022 35.2178 0.859992L33.3917 5.13338L28.773 5.5527C28.4336 5.58408 28.147 5.81345 28.0417 6.13743C27.9363 6.46141 28.0336 6.81676 28.2903 7.04077L31.781 10.1021L30.7517 14.6363C30.6763 14.9696 30.8057 15.3142 31.0824 15.5141C31.231 15.6216 31.405 15.6763 31.5804 15.6763C31.7317 15.6763 31.8817 15.6355 32.0163 15.5549L35.9998 13.1742L39.9818 15.5549C40.2732 15.7302 40.6405 15.7142 40.9165 15.5141C41.1933 15.3136 41.3226 14.9688 41.2472 14.6363L40.2179 10.1021L43.7086 7.04138C43.9653 6.81676 44.0633 6.46202 43.958 6.13743Z" fill="#FF9533"/>
</g>
<g clip-path="url(#clip2_251_11254)">
<path d="M71.9578 6.13743C71.8531 5.81345 71.5657 5.58334 71.2257 5.5527L66.6077 5.13338L64.7816 0.859259C64.6469 0.546022 64.3403 0.343259 63.9996 0.343259C63.6589 0.343259 63.3522 0.546022 63.2176 0.859992L61.3915 5.13338L56.7728 5.5527C56.4334 5.58408 56.1468 5.81345 56.0414 6.13743C55.9361 6.46141 56.0334 6.81676 56.2901 7.04077L59.7808 10.1021L58.7515 14.6363C58.6761 14.9696 58.8055 15.3142 59.0821 15.5141C59.2308 15.6216 59.4048 15.6763 59.5802 15.6763C59.7315 15.6763 59.8815 15.6355 60.0161 15.5549L63.9996 13.1742L67.9816 15.5549C68.273 15.7302 68.6403 15.7142 68.9163 15.5141C69.1931 15.3136 69.3224 14.9688 69.247 14.6363L68.2177 10.1021L71.7084 7.04138C71.9651 6.81676 72.0631 6.46202 71.9578 6.13743Z" fill="#D9D9D9"/>
</g>
<g clip-path="url(#clip3_251_11254)">
<path d="M99.9575 6.13743C99.8528 5.81345 99.5654 5.58334 99.2254 5.5527L94.6075 5.13338L92.7814 0.859259C92.6467 0.546022 92.3401 0.343259 91.9994 0.343259C91.6587 0.343259 91.352 0.546022 91.2174 0.859992L89.3913 5.13338L84.7726 5.5527C84.4332 5.58408 84.1466 5.81345 84.0412 6.13743C83.9359 6.46141 84.0332 6.81676 84.2899 7.04077L87.7806 10.1021L86.7512 14.6363C86.6759 14.9696 86.8053 15.3142 87.0819 15.5141C87.2306 15.6216 87.4046 15.6763 87.58 15.6763C87.7312 15.6763 87.8813 15.6355 88.0159 15.5549L91.9994 13.1742L95.9814 15.5549C96.2728 15.7302 96.6401 15.7142 96.9161 15.5141C97.1929 15.3136 97.3222 14.9688 97.2468 14.6363L96.2175 10.1021L99.7081 7.04138C99.9648 6.81676 100.063 6.46202 99.9575 6.13743Z" fill="#D9D9D9"/>
</g>
<g clip-path="url(#clip4_251_11254)">
<path d="M127.957 6.13743C127.853 5.81345 127.565 5.58334 127.225 5.5527L122.607 5.13338L120.781 0.859259C120.647 0.546022 120.34 0.343259 119.999 0.343259C119.658 0.343259 119.352 0.546022 119.217 0.859992L117.391 5.13338L112.772 5.5527C112.433 5.58408 112.146 5.81345 112.041 6.13743C111.936 6.46141 112.033 6.81676 112.29 7.04077L115.78 10.1021L114.751 14.6363C114.676 14.9696 114.805 15.3142 115.082 15.5141C115.23 15.6216 115.404 15.6763 115.58 15.6763C115.731 15.6763 115.881 15.6355 116.016 15.5549L119.999 13.1742L123.981 15.5549C124.273 15.7302 124.64 15.7142 124.916 15.5141C125.193 15.3136 125.322 14.9688 125.247 14.6363L124.217 10.1021L127.708 7.04138C127.965 6.81676 128.063 6.46202 127.957 6.13743Z" fill="#D9D9D9"/>
</g>
<defs>
<clipPath id="clip0_251_11254">
<rect width="16" height="16" fill="white"/>
</clipPath>
<clipPath id="clip1_251_11254">
<rect width="16" height="16" fill="white" transform="translate(27.9998)"/>
</clipPath>
<clipPath id="clip2_251_11254">
<rect width="16" height="16" fill="white" transform="translate(55.9996)"/>
</clipPath>
<clipPath id="clip3_251_11254">
<rect width="16" height="16" fill="white" transform="translate(83.9994)"/>
</clipPath>
<clipPath id="clip4_251_11254">
<rect width="16" height="16" fill="white" transform="translate(111.999)"/>
</clipPath>
</defs>
</svg>
