<svg width="6" height="24" viewBox="0 0 6 24" fill="none" xmlns="http://www.w3.org/2000/svg">
<g clip-path="url(#clip0_251_7985)">
<path d="M4.14198 7.99698C4.14472 8.17198 4.14472 8.34598 4.14472 8.51998C4.14472 13.845 3.28966 19.981 1.727 19.981C1.24556 19.981 0.798307 19.32 0.421936 18.172C0.49029 18.209 0.556113 18.222 0.62721 18.222C1.0097 18.2264 1.38136 17.6201 1.68227 16.501C1.50494 16.4858 1.33303 16.2085 1.19055 15.7077C1.04808 15.207 0.942143 14.5079 0.887548 13.708C0.94008 13.745 0.992822 13.77 1.0481 13.77C1.12426 13.77 1.20084 13.72 1.27194 13.633C1.07948 13.4488 0.906423 12.9543 0.782193 12.2337C0.657961 11.513 0.590226 10.6106 0.590501 9.67998V9.62998C0.703793 9.92898 0.835227 10.116 0.974468 10.141C0.85782 9.77357 0.762172 9.275 0.696058 8.68977C0.629944 8.10454 0.59542 7.45084 0.595565 6.78698C0.595565 6.03898 0.637548 5.35298 0.711177 4.75498C0.924708 6 1.19103 7.01854 1.49289 7.74464C1.79476 8.47074 2.12543 8.8882 2.4635 8.96998C2.45042 8.66998 2.4424 8.35898 2.4424 8.04698C2.44235 7.51794 2.46429 6.99404 2.50697 6.50522C2.54966 6.0164 2.61225 5.57225 2.69118 5.19817C2.7701 4.82408 2.86379 4.52739 2.96692 4.32506C3.07006 4.12273 3.18059 4.01872 3.29219 4.01898C3.53692 4.01898 3.7578 4.50498 3.91308 5.29098C4.10333 5.1166 4.28575 4.7874 4.45232 4.31798C4.3889 5.2488 4.25607 6.03808 4.07869 6.53798C4.24742 6.44676 4.41232 6.23643 4.56793 5.91398C4.4517 6.71708 4.3077 7.42133 4.14198 7.99698Z" fill="#000201"/>
</g>
<defs>
<clipPath id="clip0_251_7985">
<rect width="5.06329" height="24" fill="white"/>
</clipPath>
</defs>
</svg>
