<svg width="50" height="50" viewBox="0 0 50 50" fill="none" xmlns="http://www.w3.org/2000/svg">
<rect y="4.12845" width="50" height="45.8716" fill="#F8F8F8"/>
<path d="M18 18.3486C18 18.8352 18.2107 19.3019 18.5858 19.6461C18.9609 19.9902 19.4696 20.1835 20 20.1835H30C30.5304 20.1835 31.0391 19.9902 31.4142 19.6461C31.7893 19.3019 32 18.8352 32 18.3486V7.33946H34V5.50459H30V3.66973C30 3.1831 29.7893 2.71639 29.4142 2.37229C29.0391 2.02818 28.5304 1.83487 28 1.83487H22C21.4696 1.83487 20.9609 2.02818 20.5858 2.37229C20.2107 2.71639 20 3.1831 20 3.66973V5.50459H16V7.33946H18V18.3486ZM22 3.66973H28V5.50459H22V3.66973ZM21 7.33946H30V18.3486H20V7.33946H21Z" fill="#FF1616"/>
<path d="M22 9.17432H24V16.5138H22V9.17432ZM26 9.17432H28V16.5138H26V9.17432Z" fill="#FF1616"/>
</svg>
