<svg width="140" height="20" viewBox="0 0 140 20" fill="none" xmlns="http://www.w3.org/2000/svg">
<path d="M18.2895 7.64918C18.2371 7.4949 18.1407 7.35934 18.0122 7.25923C17.8836 7.15912 17.7286 7.09884 17.5662 7.08585L12.8154 6.70835L10.7595 2.15751C10.694 2.01094 10.5876 1.88645 10.4529 1.79906C10.3182 1.71167 10.1612 1.66513 10.0006 1.66504C9.84008 1.66495 9.68296 1.71132 9.5482 1.79856C9.41344 1.8858 9.30681 2.01018 9.24118 2.15668L7.18534 6.70835L2.43451 7.08585C2.27489 7.09849 2.1223 7.15686 1.99498 7.25396C1.86766 7.35106 1.77101 7.48278 1.71659 7.63337C1.66218 7.78396 1.6523 7.94704 1.68813 8.1031C1.72397 8.25916 1.80402 8.40159 1.91868 8.51335L5.42951 11.9358L4.18785 17.3125C4.15014 17.4752 4.16223 17.6455 4.22253 17.8013C4.28283 17.9571 4.38857 18.0912 4.52601 18.1862C4.66346 18.2811 4.82628 18.3326 4.99333 18.3339C5.16039 18.3351 5.32397 18.2862 5.46285 18.1933L10.0003 15.1683L14.5379 18.1933C14.6798 18.2876 14.8472 18.3361 15.0175 18.3323C15.1879 18.3286 15.353 18.2728 15.4907 18.1724C15.6284 18.072 15.732 17.9319 15.7877 17.7709C15.8433 17.6098 15.8483 17.4356 15.802 17.2716L14.2779 11.9383L18.0579 8.53668C18.3054 8.31335 18.3962 7.96501 18.2895 7.64918Z" fill="#FF9533"/>
<path d="M48.2895 7.64918C48.2371 7.4949 48.1407 7.35934 48.0122 7.25923C47.8836 7.15912 47.7286 7.09884 47.5662 7.08585L42.8154 6.70835L40.7595 2.15751C40.694 2.01094 40.5876 1.88645 40.4529 1.79906C40.3182 1.71167 40.1612 1.66513 40.0006 1.66504C39.8401 1.66495 39.683 1.71132 39.5482 1.79856C39.4134 1.8858 39.3068 2.01018 39.2412 2.15668L37.1853 6.70835L32.4345 7.08585C32.2749 7.09849 32.1223 7.15686 31.995 7.25396C31.8677 7.35106 31.771 7.48278 31.7166 7.63337C31.6622 7.78396 31.6523 7.94704 31.6881 8.1031C31.724 8.25916 31.804 8.40159 31.9187 8.51335L35.4295 11.9358L34.1879 17.3125C34.1501 17.4752 34.1622 17.6455 34.2225 17.8013C34.2828 17.9571 34.3886 18.0912 34.526 18.1862C34.6635 18.2811 34.8263 18.3326 34.9933 18.3339C35.1604 18.3351 35.324 18.2862 35.4629 18.1933L40.0003 15.1683L44.5379 18.1933C44.6798 18.2876 44.8472 18.3361 45.0175 18.3323C45.1879 18.3286 45.353 18.2728 45.4907 18.1724C45.6284 18.072 45.732 17.9319 45.7877 17.7709C45.8433 17.6098 45.8483 17.4356 45.802 17.2716L44.2779 11.9383L48.0579 8.53668C48.3054 8.31335 48.3962 7.96501 48.2895 7.64918Z" fill="#FF9533"/>
<path d="M78.2895 7.64918C78.2371 7.4949 78.1407 7.35934 78.0122 7.25923C77.8836 7.15912 77.7286 7.09884 77.5662 7.08585L72.8154 6.70835L70.7595 2.15751C70.694 2.01094 70.5876 1.88645 70.4529 1.79906C70.3182 1.71167 70.1612 1.66513 70.0006 1.66504C69.8401 1.66495 69.683 1.71132 69.5482 1.79856C69.4134 1.8858 69.3068 2.01018 69.2412 2.15668L67.1853 6.70835L62.4345 7.08585C62.2749 7.09849 62.1223 7.15686 61.995 7.25396C61.8677 7.35106 61.771 7.48278 61.7166 7.63337C61.6622 7.78396 61.6523 7.94704 61.6881 8.1031C61.724 8.25916 61.804 8.40159 61.9187 8.51335L65.4295 11.9358L64.1879 17.3125C64.1501 17.4752 64.1622 17.6455 64.2225 17.8013C64.2828 17.9571 64.3886 18.0912 64.526 18.1862C64.6635 18.2811 64.8263 18.3326 64.9933 18.3339C65.1604 18.3351 65.324 18.2862 65.4629 18.1933L70.0003 15.1683L74.5379 18.1933C74.6798 18.2876 74.8472 18.3361 75.0175 18.3323C75.1879 18.3286 75.353 18.2728 75.4907 18.1724C75.6284 18.072 75.732 17.9319 75.7877 17.7709C75.8433 17.6098 75.8483 17.4356 75.802 17.2716L74.2779 11.9383L78.0579 8.53668C78.3054 8.31335 78.3962 7.96501 78.2895 7.64918Z" fill="#FF9533"/>
<path d="M108.289 7.64918C108.237 7.4949 108.141 7.35934 108.012 7.25923C107.884 7.15912 107.729 7.09884 107.566 7.08585L102.815 6.70835L100.76 2.15751C100.694 2.01094 100.588 1.88645 100.453 1.79906C100.318 1.71167 100.161 1.66513 100.001 1.66504C99.8401 1.66495 99.683 1.71132 99.5482 1.79856C99.4134 1.8858 99.3068 2.01018 99.2412 2.15668L97.1853 6.70835L92.4345 7.08585C92.2749 7.09849 92.1223 7.15686 91.995 7.25396C91.8677 7.35106 91.771 7.48278 91.7166 7.63337C91.6622 7.78396 91.6523 7.94704 91.6881 8.1031C91.724 8.25916 91.804 8.40159 91.9187 8.51335L95.4295 11.9358L94.1879 17.3125C94.1501 17.4752 94.1622 17.6455 94.2225 17.8013C94.2828 17.9571 94.3886 18.0912 94.526 18.1862C94.6635 18.2811 94.8263 18.3326 94.9933 18.3339C95.1604 18.3351 95.324 18.2862 95.4629 18.1933L100 15.1683L104.538 18.1933C104.68 18.2876 104.847 18.3361 105.017 18.3323C105.188 18.3286 105.353 18.2728 105.491 18.1724C105.628 18.072 105.732 17.9319 105.788 17.7709C105.843 17.6098 105.848 17.4356 105.802 17.2716L104.278 11.9383L108.058 8.53668C108.305 8.31335 108.396 7.96501 108.289 7.64918Z" fill="#FF9533"/>
<path d="M138.289 7.64918C138.237 7.4949 138.141 7.35934 138.012 7.25923C137.884 7.15912 137.729 7.09884 137.566 7.08585L132.815 6.70835L130.76 2.15751C130.694 2.01094 130.588 1.88645 130.453 1.79906C130.318 1.71167 130.161 1.66513 130.001 1.66504C129.84 1.66495 129.683 1.71132 129.548 1.79856C129.413 1.8858 129.307 2.01018 129.241 2.15668L127.185 6.70835L122.435 7.08585C122.275 7.09849 122.122 7.15686 121.995 7.25396C121.868 7.35106 121.771 7.48278 121.717 7.63337C121.662 7.78396 121.652 7.94704 121.688 8.1031C121.724 8.25916 121.804 8.40159 121.919 8.51335L125.43 11.9358L124.188 17.3125C124.15 17.4752 124.162 17.6455 124.223 17.8013C124.283 17.9571 124.389 18.0912 124.526 18.1862C124.663 18.2811 124.826 18.3326 124.993 18.3339C125.16 18.3351 125.324 18.2862 125.463 18.1933L130 15.1683L134.538 18.1933C134.68 18.2876 134.847 18.3361 135.017 18.3323C135.188 18.3286 135.353 18.2728 135.491 18.1724C135.628 18.072 135.732 17.9319 135.788 17.7709C135.843 17.6098 135.848 17.4356 135.802 17.2716L134.278 11.9383L138.058 8.53668C138.305 8.31335 138.396 7.96501 138.289 7.64918Z" fill="#FF9533"/>
</svg>
