<svg width="60" height="24" viewBox="0 0 60 24" fill="none" xmlns="http://www.w3.org/2000/svg">
<g clip-path="url(#clip0_251_9854)">
<path d="M28.4488 11.6155V18.5903H26.2383V1.37295H32.101C33.5152 1.34549 34.8744 1.88096 35.9042 2.86952C36.934 3.78943 37.5106 5.12124 37.4832 6.49424C37.5106 7.88096 36.934 9.21277 35.9042 10.1464C34.8744 11.1212 33.6113 11.6155 32.1147 11.6155H28.4488ZM28.4488 3.48737V9.5011H32.1559C32.9797 9.52856 33.776 9.19904 34.339 8.60865C35.506 7.4828 35.5197 5.62925 34.3939 4.4622L34.339 4.40728C33.776 3.80316 32.9797 3.47364 32.1559 3.5011L28.4488 3.48737ZM42.577 6.42559C44.2108 6.42559 45.5015 6.86495 46.4488 7.72994C47.3962 8.60865 47.863 9.80316 47.863 11.3272V18.5766H45.7486V16.9427H45.6525C44.7326 18.2882 43.5243 18.961 42.0003 18.961C40.7097 18.961 39.6113 18.5766 38.7463 17.8077C37.8951 17.0937 37.4145 16.0365 37.442 14.9244C37.442 13.7024 37.9088 12.7413 38.8287 12.0136C39.7486 11.286 40.9843 10.929 42.5221 10.929C43.8401 10.929 44.9111 11.1762 45.7623 11.6429V11.135C45.7623 10.3798 45.4328 9.66586 44.8562 9.18531C44.2658 8.66357 43.5106 8.37524 42.728 8.37524C41.4923 8.37524 40.5175 8.89698 39.7898 9.94046L37.8401 8.71849C38.8973 7.19447 40.4763 6.42559 42.577 6.42559ZM39.7211 14.9793C39.7211 15.556 39.9957 16.0914 40.4488 16.421C40.9431 16.8054 41.5472 17.0114 42.1651 16.9976C43.0987 16.9976 43.9912 16.6269 44.6502 15.9679C45.3779 15.2814 45.7486 14.4713 45.7486 13.5377C45.0621 12.9885 44.101 12.7139 42.8653 12.7139C41.9729 12.7139 41.2177 12.9335 40.6136 13.3592C40.0232 13.7985 39.7211 14.334 39.7211 14.9793ZM60.0003 6.81003L52.6136 23.7802H50.3344L53.0804 17.8489L48.22 6.82376H50.6227L54.1239 15.2814H54.1788L57.5976 6.82376L60.0003 6.81003Z" fill="#5F6368"/>
<path d="M19.5099 10.1053C19.5099 9.43252 19.455 8.75975 19.3451 8.10071H10.0225V11.9039H15.3634C15.1437 13.1259 14.4298 14.2243 13.3863 14.9108V17.3822H16.5717C18.4389 15.6659 19.5099 13.1259 19.5099 10.1053Z" fill="#4285F4"/>
<path d="M10.0227 19.7712C12.6863 19.7712 14.938 18.8925 16.5719 17.3822L13.3865 14.9108C12.4941 15.5149 11.3545 15.8582 10.0227 15.8582C7.44148 15.8582 5.25841 14.1145 4.4758 11.7804H1.19434V14.3342C2.8694 17.6568 6.28816 19.7712 10.0227 19.7712Z" fill="#34A853"/>
<path d="M4.47588 11.7803C4.06398 10.5584 4.06398 9.22655 4.47588 7.99086V5.45081H1.19442C0.497164 6.82514 0.133789 8.34451 0.133789 9.88559C0.133789 11.4267 0.497164 12.946 1.19442 14.3204L4.47588 11.7803Z" fill="#FBBC04"/>
<path d="M10.0227 3.91303C11.4369 3.88557 12.7961 4.42104 13.8121 5.39587L16.6268 2.58122C14.8419 0.892436 12.4803 -0.0274728 10.0227 -1.28496e-05C6.28816 -1.28496e-05 2.8694 2.1144 1.19434 5.45079L4.4758 8.00456C5.25841 5.65674 7.44148 3.91303 10.0227 3.91303Z" fill="#EA4335"/>
</g>
<defs>
<clipPath id="clip0_251_9854">
<rect width="60" height="23.8901" fill="white"/>
</clipPath>
</defs>
</svg>
