<svg width="35" height="36" viewBox="0 0 35 36" fill="none" xmlns="http://www.w3.org/2000/svg">
<rect x="31.123" width="3.87658" height="35.035" rx="1.93829" fill="#F6F6F6"/>
<g clip-path="url(#clip0_251_10314)">
<path d="M1.10754 16.3416C1.00601 16.3416 0.922938 17.0923 0.922938 18.0099C0.922938 18.9275 1.00601 19.6782 1.10754 19.6782C1.20907 19.6782 1.29214 18.9275 1.29214 18.0099C1.29214 17.0923 1.20907 16.3416 1.10754 16.3416ZM1.66134 16.3416C1.55981 16.3416 1.47674 17.0923 1.47674 18.0099C1.47674 18.9275 1.55981 19.6782 1.66134 19.6782C1.76286 19.6782 1.84593 18.9275 1.84593 18.0099C1.84593 17.0923 1.76286 16.3416 1.66134 16.3416ZM0.55374 16.3416C0.45221 16.3416 0.369141 17.0923 0.369141 18.0099C0.369141 18.9275 0.45221 19.6782 0.55374 19.6782C0.655269 19.6782 0.738339 18.9275 0.738339 18.0099C0.738339 17.0923 0.655269 16.3416 0.55374 16.3416Z" fill="#000201"/>
</g>
<defs>
<clipPath id="clip0_251_10314">
<rect width="2.21519" height="20.02" fill="white" transform="translate(0 8)"/>
</clipPath>
</defs>
</svg>
