<svg width="20" height="20" viewBox="0 0 20 20" fill="none" xmlns="http://www.w3.org/2000/svg">
<path d="M4.16642 8.33333C4.16602 8.13862 4.23382 7.94993 4.35802 7.8C4.42802 7.71562 4.51392 7.64587 4.61092 7.59474C4.70782 7.54361 4.81392 7.51212 4.92312 7.50205C5.03222 7.49199 5.14232 7.50356 5.24692 7.5361C5.35162 7.56863 5.44882 7.6215 5.53302 7.69167L9.99972 11.425L14.4747 7.825C14.56 7.75578 14.658 7.70409 14.7633 7.67289C14.8686 7.6417 14.979 7.63162 15.0882 7.64324C15.1974 7.65486 15.3032 7.68794 15.3996 7.74058C15.4959 7.79323 15.581 7.8644 15.6497 7.95C15.7256 8.03622 15.7828 8.1372 15.8178 8.24658C15.8528 8.35597 15.8648 8.4714 15.8531 8.58565C15.8413 8.6999 15.8061 8.81048 15.7496 8.91047C15.6931 9.01045 15.6165 9.09768 15.5247 9.16667L10.5247 13.1917C10.3756 13.3142 10.1886 13.3812 9.99556 13.3812C9.80254 13.3812 9.6155 13.3142 9.46639 13.1917L4.46642 9.025C4.36552 8.9414 4.28582 8.8352 4.23372 8.71503C4.18162 8.59486 4.15852 8.46409 4.16642 8.33333Z" fill="#000201"/>
</svg>
