<svg width="60" height="90" viewBox="0 0 60 90" fill="none" xmlns="http://www.w3.org/2000/svg">
<circle cx="30" cy="30" r="30" fill="#F8F8F8"/>
<path d="M30 62.5C26.5538 62.5 23.75 65.3038 23.75 68.75V71.25H22.5C21.1213 71.25 20 72.3713 20 73.75V85C20 86.3787 21.1213 87.5 22.5 87.5H37.5C38.8787 87.5 40 86.3787 40 85V73.75C40 72.3713 38.8787 71.25 37.5 71.25H36.25V68.75C36.25 65.3038 33.4462 62.5 30 62.5ZM26.25 68.75C26.25 66.6825 27.9325 65 30 65C32.0675 65 33.75 66.6825 33.75 68.75V71.25H26.25V68.75ZM37.5025 85H31.25V82.1525C31.9937 81.7188 32.5 80.9212 32.5 80C32.5 78.6213 31.3787 77.5 30 77.5C28.6213 77.5 27.5 78.6213 27.5 80C27.5 80.92 28.0063 81.7188 28.75 82.1525V85H22.5V73.75H37.5L37.5025 85Z" fill="#23292E"/>
</svg>
