<svg width="20" height="18" viewBox="0 0 20 18" fill="none" xmlns="http://www.w3.org/2000/svg">
<path d="M9.97644 1.55852C8.88648 0.556289 7.45981 4.6569e-05 5.97912 0C5.19539 0.000815973 4.41957 0.156612 3.69629 0.45842C2.97302 0.76023 2.31656 1.20209 1.76472 1.75858C-0.589072 4.12237 -0.588072 7.8196 1.76672 10.1734L9.10115 17.5078C9.27121 17.8069 9.59932 18 9.97644 18C10.1313 17.9985 10.2836 17.9607 10.4213 17.8896C10.5588 17.8185 10.6778 17.7162 10.7687 17.5908L18.1861 10.1734C20.5409 7.8186 20.5409 4.12237 18.1841 1.75458C17.6326 1.19912 16.9766 0.758149 16.2541 0.457035C15.5316 0.155922 14.7566 0.000599805 13.9737 0C12.4932 0.000242039 11.0665 0.556458 9.97644 1.55852ZM16.7697 3.16905C18.3332 4.74058 18.3342 7.19539 16.7717 8.75891L9.97644 15.5542L3.18118 8.75891C1.61866 7.19539 1.61967 4.74058 3.17919 3.17305C3.93944 2.4168 4.93377 2.00066 5.97912 2.00066C7.02446 2.00066 8.01479 2.4168 8.76904 3.17105L9.26921 3.67122C9.36202 3.7642 9.47227 3.83796 9.59362 3.88828C9.71498 3.93861 9.84506 3.96452 9.97644 3.96452C10.1079 3.96452 10.2379 3.93861 10.3592 3.88828C10.4806 3.83796 10.5908 3.7642 10.6836 3.67122L11.1838 3.17105C12.6963 1.66155 15.2592 1.66555 16.7697 3.16905Z" fill="#000201"/>
</svg>
