<svg width="18" height="18" viewBox="0 0 18 18" fill="none" xmlns="http://www.w3.org/2000/svg">
<path d="M14.2838 5.55072C14.5673 5.26722 14.7233 4.89072 14.7233 4.49022C14.7233 4.08972 14.5673 3.71322 14.2838 3.42972L13.0942 2.24022C12.8108 1.95672 12.4342 1.80072 12.0337 1.80072C11.6332 1.80072 11.2568 1.95672 10.974 2.23947L3 10.1887V13.5H6.30975L14.2838 5.55072ZM12.0337 3.30072L13.224 4.48947L12.0315 5.67747L10.842 4.48872L12.0337 3.30072ZM4.5 12V10.8112L9.78 5.54772L10.9695 6.73722L5.69025 12H4.5ZM3 14.9999H15V16.4999H3V14.9999Z" fill="#000201"/>
</svg>
