<svg width="60" height="90" viewBox="0 0 60 90" fill="none" xmlns="http://www.w3.org/2000/svg">
<circle cx="30" cy="30" r="30" fill="#F8F8F8"/>
<path d="M37.134 75.366C37.018 75.2498 36.8802 75.1576 36.7286 75.0948C36.5769 75.0319 36.4144 74.9995 36.2502 74.9995C36.0861 74.9995 35.9235 75.0319 35.7719 75.0948C35.6202 75.1576 35.4825 75.2498 35.3665 75.366L33.374 77.3585C32.4502 77.0835 30.7265 76.4585 29.634 75.366C28.5414 74.2735 27.9164 72.5498 27.6414 71.626L29.634 69.6335C29.7502 69.5175 29.8423 69.3798 29.9052 69.2281C29.9681 69.0765 30.0005 68.9139 30.0005 68.7498C30.0005 68.5856 29.9681 68.423 29.9052 68.2714C29.8423 68.1198 29.7502 67.982 29.634 67.866L24.6339 62.866C24.5179 62.7498 24.3802 62.6577 24.2285 62.5948C24.0769 62.5319 23.9143 62.4995 23.7502 62.4995C23.586 62.4995 23.4235 62.5319 23.2718 62.5948C23.1202 62.6577 22.9824 62.7498 22.8664 62.866L19.4764 66.256C19.0014 66.731 18.7339 67.3835 18.7439 68.0498C18.7727 69.8298 19.2439 76.0123 24.1164 80.8848C28.989 85.7573 35.1715 86.2273 36.9527 86.2573H36.9877C37.6477 86.2573 38.2715 85.9973 38.744 85.5247L42.134 82.1348C42.2502 82.0188 42.3423 81.881 42.4052 81.7294C42.4681 81.5777 42.5005 81.4152 42.5005 81.251C42.5005 81.0868 42.4681 80.9243 42.4052 80.7726C42.3423 80.621 42.2502 80.4832 42.134 80.3673L37.134 75.366ZM36.9752 83.756C35.4152 83.7297 30.0777 83.311 25.8839 79.116C21.6764 74.9085 21.2689 69.5523 21.2439 68.0235L23.7502 65.5173L26.9827 68.7498L25.3664 70.366C25.2195 70.5128 25.1115 70.6939 25.0521 70.893C24.9928 71.092 24.9839 71.3027 25.0264 71.506C25.0564 71.6498 25.7902 75.0585 27.8652 77.1335C29.9402 79.2085 33.349 79.9423 33.4927 79.9723C33.6959 80.0159 33.9068 80.0078 34.106 79.9486C34.3052 79.8894 34.4864 79.7811 34.6327 79.6335L36.2502 78.0173L39.4827 81.2498L36.9752 83.756Z" fill="#23292E"/>
</svg>
