<svg width="30" height="30" viewBox="0 0 30 30" fill="none" xmlns="http://www.w3.org/2000/svg">
<path d="M26.1499 2.97524C24.7466 2.66095 23.313 2.50167 21.8749 2.50024C20.5167 2.41401 19.155 2.59712 17.8678 3.03903C16.5807 3.48094 15.3936 4.17294 14.3749 5.07524C13.0332 6.41691 11.7041 7.75441 10.3874 9.08774C8.87492 8.92524 5.28742 8.83774 2.88742 11.2627C2.6546 11.4969 2.52393 11.8138 2.52393 12.144C2.52393 12.4742 2.6546 12.791 2.88742 13.0252L17.0124 27.1752C17.2466 27.4081 17.5634 27.5387 17.8936 27.5387C18.2239 27.5387 18.5407 27.4081 18.7749 27.1752C21.2124 24.6752 21.1374 21.1502 20.9874 19.6752L24.9999 15.6752C28.9874 11.6877 27.1749 4.20024 27.0999 3.88774C27.0422 3.66228 26.9227 3.45742 26.7548 3.2962C26.587 3.13499 26.3775 3.02383 26.1499 2.97524ZM23.1999 13.9127L18.7499 18.3377C18.6058 18.4833 18.4996 18.662 18.4408 18.8581C18.3819 19.0543 18.3722 19.2619 18.4124 19.4627C18.6824 21.135 18.4474 22.8498 17.7374 24.3877L5.64992 12.2752C7.21223 11.5562 8.95868 11.3379 10.6499 11.6502C10.85 11.6763 11.0534 11.6535 11.2428 11.5839C11.4322 11.5142 11.6019 11.3997 11.7374 11.2502C11.7374 11.2502 13.4874 9.43774 16.1249 6.80024C17.7467 5.49788 19.8 4.85511 21.8749 5.00024C22.8509 5.00508 23.8249 5.08868 24.7874 5.25024C25.0874 7.03774 25.5624 11.5502 23.1999 13.9127Z" fill="#23292E"/>
<path d="M19.6626 12.875C21.0433 12.875 22.1626 11.7557 22.1626 10.375C22.1626 8.99429 21.0433 7.875 19.6626 7.875C18.2819 7.875 17.1626 8.99429 17.1626 10.375C17.1626 11.7557 18.2819 12.875 19.6626 12.875Z" fill="#23292E"/>
<path d="M6.25 20C3.75 21.25 3.75 26.25 3.75 26.25C6.06384 26.184 8.27894 25.2979 10 23.75L6.25 20Z" fill="#23292E"/>
</svg>
