<svg width="80" height="20" viewBox="0 0 80 20" fill="none" xmlns="http://www.w3.org/2000/svg">
<g clip-path="url(#clip0_251_9864)">
<path fill-rule="evenodd" clip-rule="evenodd" d="M6.9803 4.56213H12.4469C15.382 4.56213 16.4869 6.04803 16.3162 8.23101C16.034 11.835 13.8552 13.8289 10.9653 13.8289H9.50619C9.10966 13.8289 8.84296 14.0914 8.73572 14.8025L8.11624 18.9371C8.07532 19.2052 7.93421 19.3604 7.72254 19.3816H4.28791C3.96476 19.3816 3.85046 19.1346 3.93513 18.5998L6.02921 5.3453C6.11106 4.81472 6.40175 4.56213 6.9803 4.56213Z" fill="#009EE3"/>
<path fill-rule="evenodd" clip-rule="evenodd" d="M30.7138 4.31653C32.5581 4.31653 34.2599 5.31701 34.0271 7.81044C33.7449 10.7738 32.1574 12.4135 29.6526 12.4205H27.464C27.1493 12.4205 26.9969 12.6773 26.9151 13.2037L26.4917 15.8946C26.4282 16.301 26.2194 16.5014 25.9118 16.5014H23.8756C23.551 16.5014 23.4381 16.294 23.5101 15.8297L25.1907 5.04466C25.274 4.51408 25.4729 4.31653 25.8356 4.31653H30.7096H30.7138ZM27.3977 10.0908H29.0557C30.0929 10.0513 30.7815 9.33302 30.8507 8.03762C30.893 7.23752 30.3525 6.66461 29.4932 6.66885L27.9325 6.6759L27.3977 10.0908ZM39.5629 15.6759C39.7492 15.5066 39.9383 15.4191 39.9114 15.628L39.8451 16.1275C39.8113 16.3885 39.9143 16.5268 40.157 16.5268H41.966C42.2708 16.5268 42.419 16.4041 42.4938 15.9328L43.6085 8.9365C43.665 8.58513 43.5789 8.41298 43.3122 8.41298H41.3226C41.1433 8.41298 41.0558 8.51317 41.0093 8.78692L40.9359 9.21731C40.8978 9.44167 40.7948 9.48119 40.6988 9.25541C40.3616 8.45672 39.5008 8.0983 38.3 8.12652C35.5102 8.18438 33.6292 10.3024 33.4273 13.0174C33.2721 15.1171 34.7764 16.7667 36.7604 16.7667C38.1998 16.7667 38.8432 16.3434 39.5685 15.6802L39.5629 15.6759ZM38.0474 14.5993C36.8465 14.5993 36.0097 13.6411 36.1833 12.4671C36.3569 11.293 37.4801 10.3349 38.681 10.3349C39.8818 10.3349 40.7186 11.293 40.545 12.4671C40.3715 13.6411 39.2496 14.5993 38.0474 14.5993ZM47.149 8.3904H45.3146C44.9364 8.3904 44.7826 8.67262 44.9025 9.01975L47.1801 15.6886L44.9463 18.8622C44.7586 19.1275 44.9039 19.3688 45.1678 19.3688H47.2294C47.3496 19.3827 47.4712 19.3617 47.5798 19.3085C47.6884 19.2552 47.7794 19.1718 47.8419 19.0682L54.8466 9.02117C55.0625 8.71213 54.9609 8.38758 54.6067 8.38758H52.6552C52.3207 8.38758 52.1867 8.52022 51.9948 8.79821L49.0738 13.0315L47.7685 8.78833C47.6923 8.53151 47.5018 8.3904 47.1504 8.3904H47.149Z" fill="#113984"/>
<path fill-rule="evenodd" clip-rule="evenodd" d="M62.1343 4.31655C63.9786 4.31655 65.6803 5.31702 65.4475 7.81045C65.1653 10.7738 63.5778 12.4135 61.0731 12.4205H58.8859C58.5712 12.4205 58.4188 12.6774 58.337 13.2037L57.9136 15.8947C57.8501 16.3011 57.6413 16.5015 57.3337 16.5015H55.2974C54.9729 16.5015 54.86 16.294 54.932 15.8298L56.6154 5.04185C56.6987 4.51128 56.8976 4.31372 57.2603 4.31372H62.1343V4.31655ZM58.8181 10.0908H60.4762C61.5134 10.0513 62.202 9.33304 62.2711 8.03764C62.3135 7.23754 61.773 6.66463 60.9136 6.66886L59.353 6.67592L58.8181 10.0908ZM70.9833 15.676C71.1696 15.5066 71.3586 15.4191 71.3318 15.628L71.2655 16.1275C71.2316 16.3886 71.3346 16.5269 71.5774 16.5269H73.3864C73.6912 16.5269 73.8394 16.4041 73.9142 15.9328L75.0289 8.93651C75.0854 8.58515 74.9993 8.41299 74.7326 8.41299H72.7458C72.5665 8.41299 72.4791 8.51318 72.4325 8.78694L72.3591 9.21732C72.321 9.44169 72.218 9.4812 72.1221 9.25543C71.7848 8.45674 70.924 8.09832 69.7232 8.12654C66.9334 8.18439 65.0524 10.3025 64.8506 13.0174C64.6954 15.1172 66.1996 16.7667 68.1836 16.7667C69.623 16.7667 70.2664 16.3434 70.9918 15.6802L70.9833 15.676ZM69.4692 14.5993C68.2683 14.5993 67.4315 13.6412 67.6051 12.4671C67.7787 11.2931 68.9019 10.3349 70.1028 10.3349C71.3036 10.3349 72.1404 11.2931 71.9668 12.4671C71.7933 13.6412 70.67 14.5993 69.4692 14.5993ZM77.813 16.5381H75.7246C75.6883 16.5398 75.652 16.5333 75.6185 16.5193C75.5849 16.5053 75.5549 16.4841 75.5305 16.4571C75.5061 16.4302 75.4879 16.3982 75.4773 16.3634C75.4668 16.3286 75.464 16.2919 75.4692 16.2559L77.3036 4.63404C77.3212 4.55473 77.365 4.48367 77.428 4.43243C77.491 4.38119 77.5696 4.35278 77.6508 4.35182H79.7392C79.7755 4.3502 79.8118 4.35662 79.8453 4.37062C79.8789 4.38462 79.9089 4.40586 79.9333 4.43282C79.9577 4.45978 79.9759 4.49179 79.9865 4.52658C79.9971 4.56136 79.9999 4.59806 79.9946 4.63404L78.1602 16.2559C78.1432 16.3358 78.0996 16.4075 78.0366 16.4593C77.9735 16.511 77.8947 16.5399 77.813 16.541V16.5381Z" fill="#009EE3"/>
<path fill-rule="evenodd" clip-rule="evenodd" d="M3.5614 0H9.03368C10.5746 0 12.4034 0.0493889 13.6254 1.12889C14.4425 1.84996 14.8714 2.9972 14.7727 4.23333C14.4368 8.41162 11.9377 10.7526 8.58495 10.7526H5.88691C5.42689 10.7526 5.1235 11.0574 4.99368 11.8815L4.24014 16.6793C4.19076 16.9897 4.0567 17.1732 3.81681 17.1958H0.440029C0.066085 17.1958 -0.0665605 16.9136 0.030806 16.2898L2.45791 0.911575C2.55528 0.293509 2.89536 0 3.5614 0Z" fill="#113984"/>
<path fill-rule="evenodd" clip-rule="evenodd" d="M5.07324 11.3947L6.02856 5.34525C6.11182 4.81467 6.40251 4.56067 6.98106 4.56067H12.4477C13.3522 4.56067 14.0846 4.70178 14.6575 4.96284C14.1086 8.68252 11.7026 10.7484 8.55304 10.7484H5.85923C5.49799 10.7498 5.2327 10.9304 5.07324 11.3947Z" fill="#172C70"/>
</g>
<defs>
<clipPath id="clip0_251_9864">
<rect width="80" height="19.3816" fill="white"/>
</clipPath>
</defs>
</svg>
