<svg width="90" height="30" viewBox="0 0 90 30" fill="none" xmlns="http://www.w3.org/2000/svg">
<path d="M0.36816 25.9997V3.27998H15.632V7.15194H4.78411V13.0079H13.808V16.5918H4.78411V25.9997H0.36816ZM17.0107 19.7278V9.23191H21.2986V18.7998C21.2986 20.0798 21.5333 21.0505 22.0027 21.7118C22.472 22.3518 23.1653 22.6718 24.0827 22.6718C24.6373 22.6718 25.1813 22.5651 25.7147 22.3518C26.2693 22.1171 26.7707 21.7758 27.2186 21.3278C27.688 20.8798 28.0827 20.3145 28.4027 19.6318V9.23191H32.6906V21.1998C32.6906 21.6478 32.7652 21.9678 32.9145 22.1598C33.0852 22.3518 33.3519 22.4691 33.7146 22.5118V25.9997C33.2879 26.0637 32.9252 26.1064 32.6266 26.1277C32.3492 26.1704 32.0932 26.1917 31.8585 26.1917C31.0905 26.1917 30.4612 26.021 29.9706 25.6797C29.5012 25.317 29.2239 24.8264 29.1386 24.2078L29.0426 22.8638C28.296 23.9945 27.336 24.8584 26.1627 25.4557C24.9893 26.0317 23.6986 26.3197 22.2907 26.3197C20.5626 26.3197 19.2507 25.765 18.3547 24.6557C17.4587 23.5251 17.0107 21.8825 17.0107 19.7278ZM46.4357 12.9439C45.1344 12.9439 43.9717 13.1999 42.9477 13.7119C41.9237 14.2026 41.1877 14.9172 40.7397 15.8558V25.9997H36.4518V9.23191H40.3877V12.8159C40.985 11.6639 41.7424 10.7572 42.6597 10.0959C43.577 9.43458 44.5477 9.07192 45.5717 9.00792C45.8064 9.00792 45.9877 9.00792 46.1157 9.00792C46.2437 9.00792 46.3504 9.01859 46.4357 9.03992V12.9439ZM63.9105 25.9997H59.6225V16.5918C59.6225 15.2478 59.3878 14.2666 58.9185 13.6479C58.4492 13.0292 57.7985 12.7199 56.9665 12.7199C56.3906 12.7199 55.8039 12.8692 55.2066 13.1679C54.6306 13.4666 54.1079 13.8826 53.6386 14.4159C53.1693 14.9279 52.8279 15.5251 52.6146 16.2078V25.9997H48.3266V9.23191H52.1986V12.3359C52.6253 11.6106 53.1693 11.0026 53.8306 10.5119C54.4919 9.99991 55.2493 9.61591 56.1026 9.35991C56.9772 9.08259 57.8945 8.94392 58.8545 8.94392C59.8998 8.94392 60.7532 9.13592 61.4145 9.51991C62.0972 9.88258 62.6092 10.3839 62.9505 11.0239C63.3132 11.6426 63.5585 12.3466 63.6865 13.1359C63.8358 13.9252 63.9105 14.7252 63.9105 15.5358V25.9997ZM67.1389 25.9997V9.23191H71.4269V25.9997H67.1389ZM67.1389 6.89594V2.63999H71.4269V6.89594H67.1389ZM84.843 25.1357C84.4803 25.285 84.0431 25.4557 83.5311 25.6477C83.0191 25.8397 82.4644 25.989 81.8671 26.0957C81.2911 26.2237 80.7044 26.2877 80.107 26.2877C79.3177 26.2877 78.5924 26.149 77.9311 25.8717C77.2697 25.5944 76.7364 25.157 76.331 24.5597C75.947 23.9411 75.7551 23.1411 75.7551 22.1598V12.5279H73.5471V9.23191H75.7551V3.79197H80.0431V9.23191H83.5631V12.5279H80.0431V20.7198C80.0644 21.2958 80.2244 21.7118 80.523 21.9678C80.8217 22.2238 81.1951 22.3518 81.6431 22.3518C82.0911 22.3518 82.5284 22.2771 82.9551 22.1278C83.3817 21.9785 83.7231 21.8505 83.9791 21.7438L84.843 25.1357ZM86.4802 25.9997V21.3918H90.0002V25.9997H86.4802Z" fill="#265E55"/>
<path d="M0.36816 25.9997V3.27998H15.632V7.15194H4.78411V13.0079H13.808V16.5918H4.78411V25.9997H0.36816ZM17.0107 19.7278V9.23191H21.2986V18.7998C21.2986 20.0798 21.5333 21.0505 22.0027 21.7118C22.472 22.3518 23.1653 22.6718 24.0827 22.6718C24.6373 22.6718 25.1813 22.5651 25.7147 22.3518C26.2693 22.1171 26.7707 21.7758 27.2186 21.3278C27.688 20.8798 28.0827 20.3145 28.4027 19.6318V9.23191H32.6906V21.1998C32.6906 21.6478 32.7652 21.9678 32.9145 22.1598C33.0852 22.3518 33.3519 22.4691 33.7146 22.5118V25.9997C33.2879 26.0637 32.9252 26.1064 32.6266 26.1277C32.3492 26.1704 32.0932 26.1917 31.8585 26.1917C31.0905 26.1917 30.4612 26.021 29.9706 25.6797C29.5012 25.317 29.2239 24.8264 29.1386 24.2078L29.0426 22.8638C28.296 23.9945 27.336 24.8584 26.1627 25.4557C24.9893 26.0317 23.6986 26.3197 22.2907 26.3197C20.5626 26.3197 19.2507 25.765 18.3547 24.6557C17.4587 23.5251 17.0107 21.8825 17.0107 19.7278ZM46.4357 12.9439C45.1344 12.9439 43.9717 13.1999 42.9477 13.7119C41.9237 14.2026 41.1877 14.9172 40.7397 15.8558V25.9997H36.4518V9.23191H40.3877V12.8159C40.985 11.6639 41.7424 10.7572 42.6597 10.0959C43.577 9.43458 44.5477 9.07192 45.5717 9.00792C45.8064 9.00792 45.9877 9.00792 46.1157 9.00792C46.2437 9.00792 46.3504 9.01859 46.4357 9.03992V12.9439ZM63.9105 25.9997H59.6225V16.5918C59.6225 15.2478 59.3878 14.2666 58.9185 13.6479C58.4492 13.0292 57.7985 12.7199 56.9665 12.7199C56.3906 12.7199 55.8039 12.8692 55.2066 13.1679C54.6306 13.4666 54.1079 13.8826 53.6386 14.4159C53.1693 14.9279 52.8279 15.5251 52.6146 16.2078V25.9997H48.3266V9.23191H52.1986V12.3359C52.6253 11.6106 53.1693 11.0026 53.8306 10.5119C54.4919 9.99991 55.2493 9.61591 56.1026 9.35991C56.9772 9.08259 57.8945 8.94392 58.8545 8.94392C59.8998 8.94392 60.7532 9.13592 61.4145 9.51991C62.0972 9.88258 62.6092 10.3839 62.9505 11.0239C63.3132 11.6426 63.5585 12.3466 63.6865 13.1359C63.8358 13.9252 63.9105 14.7252 63.9105 15.5358V25.9997ZM67.1389 25.9997V9.23191H71.4269V25.9997H67.1389ZM67.1389 6.89594V2.63999H71.4269V6.89594H67.1389ZM84.843 25.1357C84.4803 25.285 84.0431 25.4557 83.5311 25.6477C83.0191 25.8397 82.4644 25.989 81.8671 26.0957C81.2911 26.2237 80.7044 26.2877 80.107 26.2877C79.3177 26.2877 78.5924 26.149 77.9311 25.8717C77.2697 25.5944 76.7364 25.157 76.331 24.5597C75.947 23.9411 75.7551 23.1411 75.7551 22.1598V12.5279H73.5471V9.23191H75.7551V3.79197H80.0431V9.23191H83.5631V12.5279H80.0431V20.7198C80.0644 21.2958 80.2244 21.7118 80.523 21.9678C80.8217 22.2238 81.1951 22.3518 81.6431 22.3518C82.0911 22.3518 82.5284 22.2771 82.9551 22.1278C83.3817 21.9785 83.7231 21.8505 83.9791 21.7438L84.843 25.1357ZM86.4802 25.9997V21.3918H90.0002V25.9997H86.4802Z" fill="#265E55"/>
<path d="M0.36816 25.9997V3.27998H15.632V7.15194H4.78411V13.0079H13.808V16.5918H4.78411V25.9997H0.36816ZM17.0107 19.7278V9.23191H21.2986V18.7998C21.2986 20.0798 21.5333 21.0505 22.0027 21.7118C22.472 22.3518 23.1653 22.6718 24.0827 22.6718C24.6373 22.6718 25.1813 22.5651 25.7147 22.3518C26.2693 22.1171 26.7707 21.7758 27.2186 21.3278C27.688 20.8798 28.0827 20.3145 28.4027 19.6318V9.23191H32.6906V21.1998C32.6906 21.6478 32.7652 21.9678 32.9145 22.1598C33.0852 22.3518 33.3519 22.4691 33.7146 22.5118V25.9997C33.2879 26.0637 32.9252 26.1064 32.6266 26.1277C32.3492 26.1704 32.0932 26.1917 31.8585 26.1917C31.0905 26.1917 30.4612 26.021 29.9706 25.6797C29.5012 25.317 29.2239 24.8264 29.1386 24.2078L29.0426 22.8638C28.296 23.9945 27.336 24.8584 26.1627 25.4557C24.9893 26.0317 23.6986 26.3197 22.2907 26.3197C20.5626 26.3197 19.2507 25.765 18.3547 24.6557C17.4587 23.5251 17.0107 21.8825 17.0107 19.7278ZM46.4357 12.9439C45.1344 12.9439 43.9717 13.1999 42.9477 13.7119C41.9237 14.2026 41.1877 14.9172 40.7397 15.8558V25.9997H36.4518V9.23191H40.3877V12.8159C40.985 11.6639 41.7424 10.7572 42.6597 10.0959C43.577 9.43458 44.5477 9.07192 45.5717 9.00792C45.8064 9.00792 45.9877 9.00792 46.1157 9.00792C46.2437 9.00792 46.3504 9.01859 46.4357 9.03992V12.9439ZM63.9105 25.9997H59.6225V16.5918C59.6225 15.2478 59.3878 14.2666 58.9185 13.6479C58.4492 13.0292 57.7985 12.7199 56.9665 12.7199C56.3906 12.7199 55.8039 12.8692 55.2066 13.1679C54.6306 13.4666 54.1079 13.8826 53.6386 14.4159C53.1693 14.9279 52.8279 15.5251 52.6146 16.2078V25.9997H48.3266V9.23191H52.1986V12.3359C52.6253 11.6106 53.1693 11.0026 53.8306 10.5119C54.4919 9.99991 55.2493 9.61591 56.1026 9.35991C56.9772 9.08259 57.8945 8.94392 58.8545 8.94392C59.8998 8.94392 60.7532 9.13592 61.4145 9.51991C62.0972 9.88258 62.6092 10.3839 62.9505 11.0239C63.3132 11.6426 63.5585 12.3466 63.6865 13.1359C63.8358 13.9252 63.9105 14.7252 63.9105 15.5358V25.9997ZM67.1389 25.9997V9.23191H71.4269V25.9997H67.1389ZM67.1389 6.89594V2.63999H71.4269V6.89594H67.1389ZM84.843 25.1357C84.4803 25.285 84.0431 25.4557 83.5311 25.6477C83.0191 25.8397 82.4644 25.989 81.8671 26.0957C81.2911 26.2237 80.7044 26.2877 80.107 26.2877C79.3177 26.2877 78.5924 26.149 77.9311 25.8717C77.2697 25.5944 76.7364 25.157 76.331 24.5597C75.947 23.9411 75.7551 23.1411 75.7551 22.1598V12.5279H73.5471V9.23191H75.7551V3.79197H80.0431V9.23191H83.5631V12.5279H80.0431V20.7198C80.0644 21.2958 80.2244 21.7118 80.523 21.9678C80.8217 22.2238 81.1951 22.3518 81.6431 22.3518C82.0911 22.3518 82.5284 22.2771 82.9551 22.1278C83.3817 21.9785 83.7231 21.8505 83.9791 21.7438L84.843 25.1357ZM86.4802 25.9997V21.3918H90.0002V25.9997H86.4802Z" fill="#265E55"/>
<path d="M0.36816 25.9997V3.27998H15.632V7.15194H4.78411V13.0079H13.808V16.5918H4.78411V25.9997H0.36816ZM17.0107 19.7278V9.23191H21.2986V18.7998C21.2986 20.0798 21.5333 21.0505 22.0027 21.7118C22.472 22.3518 23.1653 22.6718 24.0827 22.6718C24.6373 22.6718 25.1813 22.5651 25.7147 22.3518C26.2693 22.1171 26.7707 21.7758 27.2186 21.3278C27.688 20.8798 28.0827 20.3145 28.4027 19.6318V9.23191H32.6906V21.1998C32.6906 21.6478 32.7652 21.9678 32.9145 22.1598C33.0852 22.3518 33.3519 22.4691 33.7146 22.5118V25.9997C33.2879 26.0637 32.9252 26.1064 32.6266 26.1277C32.3492 26.1704 32.0932 26.1917 31.8585 26.1917C31.0905 26.1917 30.4612 26.021 29.9706 25.6797C29.5012 25.317 29.2239 24.8264 29.1386 24.2078L29.0426 22.8638C28.296 23.9945 27.336 24.8584 26.1627 25.4557C24.9893 26.0317 23.6986 26.3197 22.2907 26.3197C20.5626 26.3197 19.2507 25.765 18.3547 24.6557C17.4587 23.5251 17.0107 21.8825 17.0107 19.7278ZM46.4357 12.9439C45.1344 12.9439 43.9717 13.1999 42.9477 13.7119C41.9237 14.2026 41.1877 14.9172 40.7397 15.8558V25.9997H36.4518V9.23191H40.3877V12.8159C40.985 11.6639 41.7424 10.7572 42.6597 10.0959C43.577 9.43458 44.5477 9.07192 45.5717 9.00792C45.8064 9.00792 45.9877 9.00792 46.1157 9.00792C46.2437 9.00792 46.3504 9.01859 46.4357 9.03992V12.9439ZM63.9105 25.9997H59.6225V16.5918C59.6225 15.2478 59.3878 14.2666 58.9185 13.6479C58.4492 13.0292 57.7985 12.7199 56.9665 12.7199C56.3906 12.7199 55.8039 12.8692 55.2066 13.1679C54.6306 13.4666 54.1079 13.8826 53.6386 14.4159C53.1693 14.9279 52.8279 15.5251 52.6146 16.2078V25.9997H48.3266V9.23191H52.1986V12.3359C52.6253 11.6106 53.1693 11.0026 53.8306 10.5119C54.4919 9.99991 55.2493 9.61591 56.1026 9.35991C56.9772 9.08259 57.8945 8.94392 58.8545 8.94392C59.8998 8.94392 60.7532 9.13592 61.4145 9.51991C62.0972 9.88258 62.6092 10.3839 62.9505 11.0239C63.3132 11.6426 63.5585 12.3466 63.6865 13.1359C63.8358 13.9252 63.9105 14.7252 63.9105 15.5358V25.9997ZM67.1389 25.9997V9.23191H71.4269V25.9997H67.1389ZM67.1389 6.89594V2.63999H71.4269V6.89594H67.1389ZM84.843 25.1357C84.4803 25.285 84.0431 25.4557 83.5311 25.6477C83.0191 25.8397 82.4644 25.989 81.8671 26.0957C81.2911 26.2237 80.7044 26.2877 80.107 26.2877C79.3177 26.2877 78.5924 26.149 77.9311 25.8717C77.2697 25.5944 76.7364 25.157 76.331 24.5597C75.947 23.9411 75.7551 23.1411 75.7551 22.1598V12.5279H73.5471V9.23191H75.7551V3.79197H80.0431V9.23191H83.5631V12.5279H80.0431V20.7198C80.0644 21.2958 80.2244 21.7118 80.523 21.9678C80.8217 22.2238 81.1951 22.3518 81.6431 22.3518C82.0911 22.3518 82.5284 22.2771 82.9551 22.1278C83.3817 21.9785 83.7231 21.8505 83.9791 21.7438L84.843 25.1357ZM86.4802 25.9997V21.3918H90.0002V25.9997H86.4802Z" fill="#265E55"/>
<path d="M0.36816 25.9997V3.27998H15.632V7.15194H4.78411V13.0079H13.808V16.5918H4.78411V25.9997H0.36816ZM17.0107 19.7278V9.23191H21.2986V18.7998C21.2986 20.0798 21.5333 21.0505 22.0027 21.7118C22.472 22.3518 23.1653 22.6718 24.0827 22.6718C24.6373 22.6718 25.1813 22.5651 25.7147 22.3518C26.2693 22.1171 26.7707 21.7758 27.2186 21.3278C27.688 20.8798 28.0827 20.3145 28.4027 19.6318V9.23191H32.6906V21.1998C32.6906 21.6478 32.7652 21.9678 32.9145 22.1598C33.0852 22.3518 33.3519 22.4691 33.7146 22.5118V25.9997C33.2879 26.0637 32.9252 26.1064 32.6266 26.1277C32.3492 26.1704 32.0932 26.1917 31.8585 26.1917C31.0905 26.1917 30.4612 26.021 29.9706 25.6797C29.5012 25.317 29.2239 24.8264 29.1386 24.2078L29.0426 22.8638C28.296 23.9945 27.336 24.8584 26.1627 25.4557C24.9893 26.0317 23.6986 26.3197 22.2907 26.3197C20.5626 26.3197 19.2507 25.765 18.3547 24.6557C17.4587 23.5251 17.0107 21.8825 17.0107 19.7278ZM46.4357 12.9439C45.1344 12.9439 43.9717 13.1999 42.9477 13.7119C41.9237 14.2026 41.1877 14.9172 40.7397 15.8558V25.9997H36.4518V9.23191H40.3877V12.8159C40.985 11.6639 41.7424 10.7572 42.6597 10.0959C43.577 9.43458 44.5477 9.07192 45.5717 9.00792C45.8064 9.00792 45.9877 9.00792 46.1157 9.00792C46.2437 9.00792 46.3504 9.01859 46.4357 9.03992V12.9439ZM63.9105 25.9997H59.6225V16.5918C59.6225 15.2478 59.3878 14.2666 58.9185 13.6479C58.4492 13.0292 57.7985 12.7199 56.9665 12.7199C56.3906 12.7199 55.8039 12.8692 55.2066 13.1679C54.6306 13.4666 54.1079 13.8826 53.6386 14.4159C53.1693 14.9279 52.8279 15.5251 52.6146 16.2078V25.9997H48.3266V9.23191H52.1986V12.3359C52.6253 11.6106 53.1693 11.0026 53.8306 10.5119C54.4919 9.99991 55.2493 9.61591 56.1026 9.35991C56.9772 9.08259 57.8945 8.94392 58.8545 8.94392C59.8998 8.94392 60.7532 9.13592 61.4145 9.51991C62.0972 9.88258 62.6092 10.3839 62.9505 11.0239C63.3132 11.6426 63.5585 12.3466 63.6865 13.1359C63.8358 13.9252 63.9105 14.7252 63.9105 15.5358V25.9997ZM67.1389 25.9997V9.23191H71.4269V25.9997H67.1389ZM67.1389 6.89594V2.63999H71.4269V6.89594H67.1389ZM84.843 25.1357C84.4803 25.285 84.0431 25.4557 83.5311 25.6477C83.0191 25.8397 82.4644 25.989 81.8671 26.0957C81.2911 26.2237 80.7044 26.2877 80.107 26.2877C79.3177 26.2877 78.5924 26.149 77.9311 25.8717C77.2697 25.5944 76.7364 25.157 76.331 24.5597C75.947 23.9411 75.7551 23.1411 75.7551 22.1598V12.5279H73.5471V9.23191H75.7551V3.79197H80.0431V9.23191H83.5631V12.5279H80.0431V20.7198C80.0644 21.2958 80.2244 21.7118 80.523 21.9678C80.8217 22.2238 81.1951 22.3518 81.6431 22.3518C82.0911 22.3518 82.5284 22.2771 82.9551 22.1278C83.3817 21.9785 83.7231 21.8505 83.9791 21.7438L84.843 25.1357ZM86.4802 25.9997V21.3918H90.0002V25.9997H86.4802Z" fill="#265E55"/>
<path d="M0.36816 25.9997V3.27998H15.632V7.15194H4.78411V13.0079H13.808V16.5918H4.78411V25.9997H0.36816ZM17.0107 19.7278V9.23191H21.2986V18.7998C21.2986 20.0798 21.5333 21.0505 22.0027 21.7118C22.472 22.3518 23.1653 22.6718 24.0827 22.6718C24.6373 22.6718 25.1813 22.5651 25.7147 22.3518C26.2693 22.1171 26.7707 21.7758 27.2186 21.3278C27.688 20.8798 28.0827 20.3145 28.4027 19.6318V9.23191H32.6906V21.1998C32.6906 21.6478 32.7652 21.9678 32.9145 22.1598C33.0852 22.3518 33.3519 22.4691 33.7146 22.5118V25.9997C33.2879 26.0637 32.9252 26.1064 32.6266 26.1277C32.3492 26.1704 32.0932 26.1917 31.8585 26.1917C31.0905 26.1917 30.4612 26.021 29.9706 25.6797C29.5012 25.317 29.2239 24.8264 29.1386 24.2078L29.0426 22.8638C28.296 23.9945 27.336 24.8584 26.1627 25.4557C24.9893 26.0317 23.6986 26.3197 22.2907 26.3197C20.5626 26.3197 19.2507 25.765 18.3547 24.6557C17.4587 23.5251 17.0107 21.8825 17.0107 19.7278ZM46.4357 12.9439C45.1344 12.9439 43.9717 13.1999 42.9477 13.7119C41.9237 14.2026 41.1877 14.9172 40.7397 15.8558V25.9997H36.4518V9.23191H40.3877V12.8159C40.985 11.6639 41.7424 10.7572 42.6597 10.0959C43.577 9.43458 44.5477 9.07192 45.5717 9.00792C45.8064 9.00792 45.9877 9.00792 46.1157 9.00792C46.2437 9.00792 46.3504 9.01859 46.4357 9.03992V12.9439ZM63.9105 25.9997H59.6225V16.5918C59.6225 15.2478 59.3878 14.2666 58.9185 13.6479C58.4492 13.0292 57.7985 12.7199 56.9665 12.7199C56.3906 12.7199 55.8039 12.8692 55.2066 13.1679C54.6306 13.4666 54.1079 13.8826 53.6386 14.4159C53.1693 14.9279 52.8279 15.5251 52.6146 16.2078V25.9997H48.3266V9.23191H52.1986V12.3359C52.6253 11.6106 53.1693 11.0026 53.8306 10.5119C54.4919 9.99991 55.2493 9.61591 56.1026 9.35991C56.9772 9.08259 57.8945 8.94392 58.8545 8.94392C59.8998 8.94392 60.7532 9.13592 61.4145 9.51991C62.0972 9.88258 62.6092 10.3839 62.9505 11.0239C63.3132 11.6426 63.5585 12.3466 63.6865 13.1359C63.8358 13.9252 63.9105 14.7252 63.9105 15.5358V25.9997ZM67.1389 25.9997V9.23191H71.4269V25.9997H67.1389ZM67.1389 6.89594V2.63999H71.4269V6.89594H67.1389ZM84.843 25.1357C84.4803 25.285 84.0431 25.4557 83.5311 25.6477C83.0191 25.8397 82.4644 25.989 81.8671 26.0957C81.2911 26.2237 80.7044 26.2877 80.107 26.2877C79.3177 26.2877 78.5924 26.149 77.9311 25.8717C77.2697 25.5944 76.7364 25.157 76.331 24.5597C75.947 23.9411 75.7551 23.1411 75.7551 22.1598V12.5279H73.5471V9.23191H75.7551V3.79197H80.0431V9.23191H83.5631V12.5279H80.0431V20.7198C80.0644 21.2958 80.2244 21.7118 80.523 21.9678C80.8217 22.2238 81.1951 22.3518 81.6431 22.3518C82.0911 22.3518 82.5284 22.2771 82.9551 22.1278C83.3817 21.9785 83.7231 21.8505 83.9791 21.7438L84.843 25.1357ZM86.4802 25.9997V21.3918H90.0002V25.9997H86.4802Z" fill="#265E55"/>
<path d="M0.36816 25.9997V3.27998H15.632V7.15194H4.78411V13.0079H13.808V16.5918H4.78411V25.9997H0.36816ZM17.0107 19.7278V9.23191H21.2986V18.7998C21.2986 20.0798 21.5333 21.0505 22.0027 21.7118C22.472 22.3518 23.1653 22.6718 24.0827 22.6718C24.6373 22.6718 25.1813 22.5651 25.7147 22.3518C26.2693 22.1171 26.7707 21.7758 27.2186 21.3278C27.688 20.8798 28.0827 20.3145 28.4027 19.6318V9.23191H32.6906V21.1998C32.6906 21.6478 32.7652 21.9678 32.9145 22.1598C33.0852 22.3518 33.3519 22.4691 33.7146 22.5118V25.9997C33.2879 26.0637 32.9252 26.1064 32.6266 26.1277C32.3492 26.1704 32.0932 26.1917 31.8585 26.1917C31.0905 26.1917 30.4612 26.021 29.9706 25.6797C29.5012 25.317 29.2239 24.8264 29.1386 24.2078L29.0426 22.8638C28.296 23.9945 27.336 24.8584 26.1627 25.4557C24.9893 26.0317 23.6986 26.3197 22.2907 26.3197C20.5626 26.3197 19.2507 25.765 18.3547 24.6557C17.4587 23.5251 17.0107 21.8825 17.0107 19.7278ZM46.4357 12.9439C45.1344 12.9439 43.9717 13.1999 42.9477 13.7119C41.9237 14.2026 41.1877 14.9172 40.7397 15.8558V25.9997H36.4518V9.23191H40.3877V12.8159C40.985 11.6639 41.7424 10.7572 42.6597 10.0959C43.577 9.43458 44.5477 9.07192 45.5717 9.00792C45.8064 9.00792 45.9877 9.00792 46.1157 9.00792C46.2437 9.00792 46.3504 9.01859 46.4357 9.03992V12.9439ZM63.9105 25.9997H59.6225V16.5918C59.6225 15.2478 59.3878 14.2666 58.9185 13.6479C58.4492 13.0292 57.7985 12.7199 56.9665 12.7199C56.3906 12.7199 55.8039 12.8692 55.2066 13.1679C54.6306 13.4666 54.1079 13.8826 53.6386 14.4159C53.1693 14.9279 52.8279 15.5251 52.6146 16.2078V25.9997H48.3266V9.23191H52.1986V12.3359C52.6253 11.6106 53.1693 11.0026 53.8306 10.5119C54.4919 9.99991 55.2493 9.61591 56.1026 9.35991C56.9772 9.08259 57.8945 8.94392 58.8545 8.94392C59.8998 8.94392 60.7532 9.13592 61.4145 9.51991C62.0972 9.88258 62.6092 10.3839 62.9505 11.0239C63.3132 11.6426 63.5585 12.3466 63.6865 13.1359C63.8358 13.9252 63.9105 14.7252 63.9105 15.5358V25.9997ZM67.1389 25.9997V9.23191H71.4269V25.9997H67.1389ZM67.1389 6.89594V2.63999H71.4269V6.89594H67.1389ZM84.843 25.1357C84.4803 25.285 84.0431 25.4557 83.5311 25.6477C83.0191 25.8397 82.4644 25.989 81.8671 26.0957C81.2911 26.2237 80.7044 26.2877 80.107 26.2877C79.3177 26.2877 78.5924 26.149 77.9311 25.8717C77.2697 25.5944 76.7364 25.157 76.331 24.5597C75.947 23.9411 75.7551 23.1411 75.7551 22.1598V12.5279H73.5471V9.23191H75.7551V3.79197H80.0431V9.23191H83.5631V12.5279H80.0431V20.7198C80.0644 21.2958 80.2244 21.7118 80.523 21.9678C80.8217 22.2238 81.1951 22.3518 81.6431 22.3518C82.0911 22.3518 82.5284 22.2771 82.9551 22.1278C83.3817 21.9785 83.7231 21.8505 83.9791 21.7438L84.843 25.1357ZM86.4802 25.9997V21.3918H90.0002V25.9997H86.4802Z" fill="#265E55"/>
</svg>
