<svg width="1094" height="48" viewBox="0 0 1094 48" fill="none" xmlns="http://www.w3.org/2000/svg">
<g clip-path="url(#clip0_251_8748)">
<path d="M726.548 18.185C726.548 17.6444 726.169 17.284 725.544 17.284L724.316 17.3066L724.338 20.0544H725.008V19.1084H725.41L725.99 20.0544H726.772L726.079 18.9958C726.223 18.9157 726.342 18.798 726.424 18.6554C726.507 18.5127 726.55 18.3502 726.548 18.185ZM725.41 18.5454H724.985V17.8471H725.477C725.565 17.8373 725.654 17.8623 725.725 17.9168C725.795 17.9714 725.842 18.0513 725.856 18.1399V18.1625C725.854 18.2181 725.841 18.2728 725.817 18.323C725.793 18.3732 725.759 18.4178 725.717 18.4538C725.675 18.4899 725.626 18.5167 725.573 18.5325C725.52 18.5482 725.464 18.5526 725.41 18.5454ZM626.364 30.8882C625.225 30.8882 624.444 29.9873 624.444 28.6584V22.5996H629.132V18.3201H624.455L624.41 13.41H619.23L619.275 29.762C619.275 33.073 621.463 35.3253 624.678 35.3253C626.375 35.3253 627.983 35.0776 629.255 34.4919V30.3251C628.351 30.7482 627.359 30.9415 626.364 30.8882ZM638.733 18.0498C633.911 18.0498 630.204 21.8338 630.204 26.8565C630.204 31.8342 633.911 35.3028 639.024 35.3028C641.904 35.3028 644.606 34.2667 646.258 32.127L642.284 30.3026C641.48 31.0459 640.252 31.3387 639.158 31.3387C637.371 31.3387 635.585 30.4152 635.34 28.5232H647.196C647.374 27.8472 647.464 27.1506 647.464 26.4511C647.464 21.2932 643.735 18.0498 638.744 18.0498H638.733ZM635.34 25.2123C635.496 22.9599 637.103 21.9239 638.867 21.9239C640.854 21.9239 642.35 23.05 642.35 24.9871V25.2123H635.34ZM614.307 30.8882C613.168 30.8882 612.387 29.9873 612.387 28.6584V22.5996H617.076V18.3201H612.398L612.353 13.41H607.173L607.218 29.762C607.218 33.073 609.406 35.3253 612.621 35.3253C614.318 35.3253 615.926 35.0776 617.198 34.4919V30.3251C616.295 30.7502 615.302 30.9437 614.307 30.8882ZM596.11 18.0498C591.667 18.0498 587 21.0004 587 26.9466C587 31.9018 590.305 35.3704 594.48 35.3704C596.869 35.3704 598.677 34.4019 599.861 32.6901L600.017 35.0775H605.03V27.1493C605.03 21.113 600.62 18.0498 596.11 18.0498ZM596.11 30.7981C593.855 30.7981 592.225 29.1088 592.225 26.7214C592.225 24.3339 593.832 22.6446 596.11 22.6446C598.208 22.6446 599.95 24.4915 599.95 26.7214C599.95 28.9512 598.208 30.7981 596.11 30.7981ZM725.298 16.0452C723.668 16.0678 722.619 17.1264 722.641 18.703C722.663 20.2797 723.735 21.3157 725.365 21.2932C726.95 21.2707 728.022 20.2121 728 18.6129C727.977 17.0138 726.906 16.0227 725.298 16.0452ZM725.365 20.8427C724.092 20.8653 723.222 20.0094 723.222 18.703C723.222 17.3967 724.048 16.5182 725.32 16.4957C726.593 16.4732 727.441 17.3291 727.464 18.658C727.464 19.9418 726.615 20.8202 725.376 20.8427H725.365ZM699.978 18.3426L696.361 28.9287L692.7 18.3426H687.073L693.816 35.055H698.862L705.605 18.3426H699.978ZM713.397 18.0498C708.575 18.0498 704.868 21.8338 704.868 26.8565C704.868 31.8342 708.575 35.3028 713.688 35.3028C716.568 35.3028 719.27 34.2667 720.922 32.127L716.947 30.3026C716.144 31.0459 714.916 31.3387 713.822 31.3387C712.035 31.3387 710.249 30.4152 710.004 28.5232H721.86C722.038 27.8472 722.128 27.1506 722.127 26.4511C722.127 21.2932 718.399 18.0498 713.397 18.0498ZM717.014 25.2123H710.004C710.16 22.9599 711.767 21.9239 713.531 21.9239C715.518 21.9239 717.014 23.05 717.014 24.9871V25.2123ZM683.076 11C681.245 11 679.861 12.2388 679.861 13.9731C679.861 15.7074 681.245 16.9912 683.076 16.9912C684.907 16.9912 686.291 15.7299 686.291 13.9731C686.291 12.2163 684.93 11 683.076 11ZM659.565 18.0273C658.518 18.0103 657.485 18.2668 656.565 18.772C655.646 19.2772 654.872 20.0139 654.318 20.9103L654.14 18.3426H649.138V35.055H654.318V26.2934C654.43 24.1987 656.104 22.5996 657.935 22.5996C659.989 22.5996 660.927 24.1537 660.927 26.1132V35.0325H666.085V25.3024C666.085 21.068 663.528 18.0273 659.565 18.0273ZM675.373 30.8882C674.234 30.8882 673.453 29.9873 673.453 28.6584V22.5996H678.142V18.3201H673.453L673.408 13.41H668.228L668.273 29.762C668.273 33.073 670.461 35.3253 673.676 35.3253C675.373 35.3253 676.981 35.0776 678.254 34.4919V30.3251C677.354 30.7484 676.365 30.9418 675.373 30.8882ZM680.464 18.3426V35.055H685.689V18.3426C684.914 18.8604 684.005 19.1366 683.076 19.1366C682.147 19.1366 681.238 18.8604 680.464 18.3426Z" fill="#F8F8F8"/>
</g>
<path d="M989.705 7H967.758C964.716 7 962.25 9.4658 962.25 12.5083V34.4553C962.25 37.4977 964.716 39.9635 967.758 39.9635H989.705C992.748 39.9635 995.214 37.4977 995.214 34.4553V12.5083C995.214 9.4658 992.748 7 989.705 7ZM989.221 32.2314C989.221 33.1925 988.442 33.9714 987.481 33.9714H969.982C969.021 33.9714 968.242 33.1925 968.242 32.2314V14.7322C968.242 13.771 969.021 12.9922 969.982 12.9922H987.481C988.442 12.9922 989.221 13.771 989.221 14.7322V32.2314ZM975.235 27.956C974.682 27.956 974.238 27.5086 974.238 26.9551V19.9687C974.238 19.4152 974.682 18.9644 975.235 18.9644H982.232C982.782 18.9644 983.229 19.4119 983.229 19.9687V26.9518C983.229 27.5053 982.782 27.9527 982.232 27.9527H975.235V27.956ZM1003.95 27.4788H1007.55C1007.73 29.517 1009.11 31.1079 1011.9 31.1079C1014.39 31.1079 1015.92 29.8783 1015.92 28.019C1015.92 26.279 1014.72 25.5001 1012.56 24.9898L1009.77 24.3899C1006.74 23.7303 1004.46 21.7816 1004.46 18.5999C1004.46 15.0901 1007.58 12.6906 1011.63 12.6906C1015.92 12.6906 1018.68 14.941 1018.92 18.2685H1015.44C1015.02 16.7108 1013.73 15.7828 1011.63 15.7828C1009.41 15.7828 1007.88 16.9825 1007.88 18.5137C1007.88 20.0449 1009.2 20.9729 1011.48 21.4833L1014.24 22.0832C1017.27 22.7427 1019.34 24.5722 1019.34 27.7804C1019.34 31.8602 1016.28 34.2895 1011.9 34.2895C1006.98 34.2862 1004.25 31.6183 1003.95 27.4788ZM1032.22 39.9635V33.9946L1032.45 31.3763H1032.22C1031.39 33.2588 1029.66 34.2895 1027.31 34.2895C1023.51 34.2895 1020.69 31.2007 1020.69 26.4646C1020.69 21.7285 1023.51 18.6397 1027.31 18.6397C1029.63 18.6397 1031.28 19.7267 1032.22 21.4336H1032.45V18.9313H1035.57V39.9635H1032.22ZM1032.33 26.4613C1032.33 23.4321 1030.48 21.6656 1028.21 21.6656C1025.95 21.6656 1024.09 23.4321 1024.09 26.4613C1024.09 29.4905 1025.95 31.257 1028.21 31.257C1030.48 31.257 1032.33 29.4938 1032.33 26.4613ZM1038.06 28.0223V18.9313H1041.41V27.7273C1041.41 30.1103 1042.56 31.257 1044.47 31.257C1046.83 31.257 1048.36 29.58 1048.36 26.9617V18.9313H1051.71V33.9913H1048.59V30.8726H1048.36C1047.62 32.8744 1046 34.2862 1043.51 34.2862C1039.91 34.2862 1038.06 31.9928 1038.06 28.0223ZM1053.75 29.7855C1053.75 26.9617 1055.73 25.3146 1059.22 25.1091L1063.37 24.8439V23.6674C1063.37 22.2555 1062.34 21.4037 1060.52 21.4037C1058.84 21.4037 1057.84 22.2555 1057.57 23.4619H1054.22C1054.58 20.4028 1057.1 18.6363 1060.51 18.6363C1064.37 18.6363 1066.72 20.2835 1066.72 23.4619V33.9913H1063.6V31.1973H1063.37C1062.66 33.05 1061.19 34.2862 1058.37 34.2862C1055.67 34.2862 1053.75 32.4634 1053.75 29.7855ZM1063.37 27.9328V27.1374L1059.99 27.3727C1058.17 27.4887 1057.34 28.1681 1057.34 29.5203C1057.34 30.6671 1058.28 31.4923 1059.61 31.4923C1061.99 31.4923 1063.37 29.9644 1063.37 27.9328ZM1069.22 33.9946V18.9313H1072.34V21.8147H1072.58C1073.02 19.8427 1074.52 18.9313 1076.75 18.9313H1078.29V21.9605H1076.37C1074.19 21.9605 1072.58 23.3724 1072.58 26.0503V33.9913H1069.22V33.9946ZM1093.63 27.081H1082.19C1082.36 29.8451 1084.3 31.4061 1086.45 31.4061C1088.27 31.4061 1089.42 30.6704 1090.07 29.4342H1093.4C1092.48 32.4932 1089.81 34.2862 1086.42 34.2862C1081.98 34.2862 1078.86 30.962 1078.86 26.4613C1078.86 21.9605 1082.07 18.6363 1086.45 18.6363C1090.86 18.6363 1093.75 21.6656 1093.75 25.4305C1093.75 26.1696 1093.69 26.5508 1093.63 27.081ZM1090.43 24.7578C1090.31 22.6698 1088.57 21.2579 1086.46 21.2579C1084.45 21.2579 1082.78 22.524 1082.36 24.7578H1090.43Z" fill="#F8F8F8"/>
<defs>
<clipPath id="clip0_251_8748">
<rect width="141" height="48" fill="white" transform="translate(587)"/>
</clipPath>
</defs>
</svg>
