<svg width="40" height="40" viewBox="0 0 40 40" fill="none" xmlns="http://www.w3.org/2000/svg">
<ellipse cx="37.0584" cy="20" rx="2.94118" ry="20" fill="#FEE3CB"/>
<g clip-path="url(#clip0_251_9754)">
<path d="M2.88113 14.69C2.73454 14.4708 2.60192 13.9414 2.50232 13.1779C2.40272 12.4144 2.34125 11.4559 2.32672 10.44V10H1.81937V23.67C1.81947 24.2766 1.79151 24.868 1.73943 25.3604C1.68736 25.8529 1.61382 26.2215 1.52923 26.414C1.44464 26.6065 1.35329 26.6131 1.26811 26.4329C1.18294 26.2527 1.10826 25.8948 1.05466 25.41C1.00664 24.9808 0.977234 24.4689 0.969771 23.932C0.962306 23.3951 0.977081 22.8548 1.01243 22.372C1.04777 21.8892 1.10227 21.4834 1.16977 21.2003C1.23726 20.9172 1.31506 20.7681 1.39437 20.77C1.43823 20.7683 1.48187 20.8121 1.52378 20.9V17.4C1.47501 17.3589 1.42585 17.3422 1.37672 17.35C1.19574 17.3829 1.02009 17.7739 0.871293 18.4753C0.722494 19.1766 0.607 20.1578 0.538954 21.2986C0.470907 22.4395 0.453263 23.6905 0.48818 24.8986C0.523098 26.1066 0.609061 27.2191 0.735546 28.1C0.865175 28.9962 1.03106 29.6101 1.21212 29.8638C1.39318 30.1175 1.58124 29.9994 1.75241 29.5246C1.92358 29.0498 2.07013 28.2397 2.17344 27.1973C2.27673 26.1548 2.33214 24.9271 2.3326 23.67V16.67C2.53723 17.6639 2.7826 18.1956 3.03407 18.19V14.79C2.98467 14.7914 2.93539 14.7579 2.88701 14.69H2.88113Z" fill="#000201"/>
</g>
<defs>
<clipPath id="clip0_251_9754">
<rect width="3.52941" height="24" fill="white" transform="translate(0 8)"/>
</clipPath>
</defs>
</svg>
